<?xml version="1.0" standalone="no"?>
<!DOCTYPE svg PUBLIC "-//W3C//DTD SVG 20010904//EN"
 "http://www.w3.org/TR/2001/REC-SVG-20010904/DTD/svg10.dtd">
<svg version="1.0" xmlns="http://www.w3.org/2000/svg"
 width="1920.000000pt" height="1645.000000pt" viewBox="0 0 1920.000000 1645.000000"
 preserveAspectRatio="xMidYMid meet">

<g transform="translate(0.000000,1645.000000) scale(0.100000,-0.100000)"
fill="#000000" stroke="none">
<path d="M12283 16175 c-89 -45 -125 -109 -232 -413 -150 -429 -228 -625 -356
-903 -425 -918 -1228 -1985 -2519 -3349 -142 -150 -327 -339 -671 -690 -154
-157 -332 -343 -394 -415 -845 -967 -1303 -1952 -1428 -3075 -25 -223 -24
-753 0 -980 55 -498 174 -974 362 -1445 37 -93 70 -188 73 -211 6 -58 -18
-101 -63 -110 -49 -9 -86 -1 -290 66 -523 171 -1015 277 -1570 337 -126 14
-249 18 -580 18 -503 0 -607 -9 -1087 -95 -520 -94 -731 -114 -1178 -114 -261
0 -383 4 -500 17 -369 41 -649 106 -1059 244 -325 109 -378 119 -450 81 -57
-29 -78 -59 -93 -130 -11 -51 -9 -67 14 -162 94 -378 537 -1219 984 -1866 878
-1273 1837 -2138 2790 -2518 205 -82 476 -161 606 -178 24 -3 54 -7 68 -9 14
-2 41 -6 60 -8 349 -47 1081 -28 1630 42 124 16 292 41 345 51 209 41 283 57
450 100 301 78 519 157 760 277 131 65 309 176 336 210 8 10 -4 4 -26 -13
-184 -143 -531 -305 -870 -408 -543 -164 -1119 -246 -1868 -266 -385 -10 -614
-1 -798 30 -670 114 -1334 467 -2009 1066 -128 114 -493 480 -616 619 -244
273 -514 618 -739 942 -422 606 -851 1399 -996 1839 -26 79 -32 116 -33 187
-2 148 0 148 507 -26 544 -187 962 -257 1537 -257 409 0 703 30 1155 115 427
81 672 105 1092 105 337 0 532 -13 858 -56 602 -79 1358 -290 1868 -520 43
-20 80 -34 82 -32 2 2 -10 25 -27 52 -42 69 -187 361 -238 481 -296 696 -438
1471 -402 2197 59 1200 532 2290 1439 3317 37 42 176 186 308 321 674 687
1118 1158 1496 1590 816 933 1350 1683 1706 2395 147 294 240 517 388 935 166
470 165 468 202 500 28 25 42 30 86 30 29 0 70 -9 92 -19 67 -30 188 -134 277
-238 664 -771 1459 -2542 1872 -4163 162 -640 253 -1145 321 -1795 19 -179 35
-542 35 -805 0 -577 -50 -1025 -165 -1475 -83 -323 -173 -561 -333 -881 -320
-639 -752 -1338 -1186 -1919 -301 -402 -541 -694 -900 -1095 -177 -198 -736
-755 -926 -924 -85 -75 -166 -148 -180 -160 -362 -328 -1035 -827 -1320 -980
-47 -25 -80 -46 -75 -46 32 0 283 155 505 311 491 345 978 758 1484 1258 421
417 677 697 1054 1156 234 284 547 710 782 1065 67 102 127 188 134 192 6 4 8
8 4 8 -8 0 112 197 136 223 9 9 13 17 9 17 -5 0 -3 4 2 8 6 4 21 27 35 52 13
25 32 54 42 64 9 10 15 23 12 28 -3 4 0 8 5 8 6 0 11 7 11 15 0 8 3 15 8 15 8
0 41 56 44 75 1 6 10 19 20 29 16 18 22 31 16 39 -1 1 6 12 17 24 49 57 352
642 440 848 26 61 75 196 110 300 128 383 202 762 247 1255 20 219 17 930 -5
1190 -79 940 -284 1904 -623 2933 -222 671 -468 1275 -769 1882 -311 627 -618
1115 -869 1382 -199 211 -341 273 -473 208z"/>
<path d="M17428 10770 c-479 -45 -905 -338 -1123 -770 -43 -86 -106 -273 -126
-375 -21 -107 -19 -418 4 -525 95 -446 373 -804 772 -995 99 -47 281 -109 301
-101 6 2 15 2 18 -1 3 -4 16 -7 29 -8 12 -1 60 -7 107 -14 46 -6 121 -11 165
-11 96 0 178 -22 200 -53 20 -29 19 -93 -4 -142 -22 -48 -201 -326 -431 -670
-558 -833 -1456 -2037 -1955 -2620 -369 -432 -772 -822 -1245 -1206 -1326
-1076 -3192 -2014 -5070 -2549 -140 -40 -274 -82 -298 -93 -53 -24 -92 -70
-92 -107 0 -35 10 -61 20 -55 4 3 11 -11 14 -30 4 -19 10 -37 15 -39 20 -13
539 76 871 149 748 163 1702 458 2466 763 291 116 768 336 1089 501 339 175
695 373 695 388 0 3 -10 -1 -22 -9 -102 -66 -539 -303 -783 -425 -566 -283
-1076 -496 -1725 -720 -866 -298 -1793 -530 -2547 -637 l-41 -6 -7 41 c-4 22
-5 42 -3 43 1 1 41 13 88 25 1595 422 3156 1110 4481 1976 651 426 1159 837
1695 1370 298 297 457 475 755 845 319 397 969 1265 1349 1805 314 446 1032
1547 1017 1561 -2 2 -37 -8 -78 -22 -152 -52 -250 -67 -439 -67 -138 1 -195 5
-270 21 -266 57 -482 173 -669 359 -191 191 -309 406 -367 673 -15 68 -19 126
-19 285 1 183 3 209 28 308 168 672 798 1098 1482 1002 313 -43 559 -167 775
-391 220 -228 339 -488 369 -804 17 -184 -4 -368 -64 -555 -19 -60 -57 -202
-84 -315 -158 -655 -483 -1490 -842 -2162 -373 -698 -730 -1223 -1213 -1783
-279 -324 -881 -916 -1276 -1256 -516 -443 -891 -720 -1447 -1068 -73 -46
-133 -85 -133 -87 0 -6 -5 -9 145 84 629 392 1129 774 1730 1323 180 164 624
602 793 782 306 324 607 706 891 1127 79 118 148 218 153 221 6 3 9 9 8 13 -2
9 92 160 102 164 4 2 8 10 8 18 0 8 3 14 8 14 11 0 62 96 55 104 -3 3 -1 6 4
6 11 0 79 112 85 140 2 8 8 19 14 25 19 16 203 372 304 585 294 622 495 1172
655 1790 35 135 74 286 88 335 50 176 61 259 61 435 -1 185 -20 300 -75 457
-166 469 -571 820 -1050 912 -126 23 -293 32 -411 21z"/>
<path d="M12096 8643 c-275 -1199 -669 -2504 -1081 -3578 -224 -584 -414
-1020 -661 -1515 -174 -349 -273 -531 -422 -780 -252 -422 -516 -789 -778
-1085 -85 -97 -110 -134 -33 -50 106 116 137 151 235 275 182 229 353 474 525
750 46 74 89 141 96 148 7 7 13 20 13 28 0 8 5 14 12 14 6 0 9 3 5 6 -3 3 1
13 9 22 8 10 14 21 14 25 -1 4 6 15 15 23 8 9 13 19 10 24 -3 4 2 11 11 14 8
3 12 10 9 16 -3 5 -1 10 5 10 6 0 8 5 5 10 -3 5 -2 10 2 10 5 0 23 27 41 60
19 33 31 60 28 60 -3 0 2 8 12 18 25 25 324 620 441 879 402 889 731 1787
1085 2963 104 346 146 469 183 545 48 95 75 108 100 48 23 -57 12 -398 -21
-648 -130 -976 -376 -1868 -768 -2780 -319 -743 -698 -1412 -1222 -2160 -129
-185 -161 -249 -149 -306 3 -17 14 -36 23 -42 10 -6 16 -18 13 -26 -3 -9 21
22 54 69 32 47 130 186 217 310 1164 1659 1853 3533 1991 5415 21 280 24 386
24 750 0 400 -5 555 -19 555 -3 0 -14 -35 -24 -77z"/>
<path d="M4222 2558 c8 -23 270 -249 423 -363 218 -164 392 -274 642 -409 705
-379 1549 -625 2403 -700 210 -19 503 -36 611 -36 43 0 79 -3 79 -7 0 -4 -17
-25 -37 -48 -36 -38 -36 -38 10 5 49 47 57 60 32 60 -8 0 -22 18 -31 40 -27
68 -67 80 -306 91 -364 16 -709 61 -965 124 -212 52 -317 95 -299 123 3 6 267
10 643 10 372 0 701 5 788 12 321 24 637 65 775 100 83 22 71 20 -140 -15
-383 -64 -602 -80 -1090 -80 -490 0 -641 11 -1070 76 -857 131 -1662 451
-2324 924 -81 58 -146 100 -144 93z"/>
<path d="M9858 1583 c6 -2 18 -2 25 0 6 3 1 5 -13 5 -14 0 -19 -2 -12 -5z"/>
</g>
</svg>
